# xmcd CD database file
#
# Track frame offsets:
#	150
#	14150
#	32855
#
# Disc length: 850 seconds
#
# Revision: 0
# Processed by: cddbd v1.5.1PL0 Copyright (c) Steve Scherf et al.
# Submitted via: CDex 1.51
#
DISCID=22035003
DTITLE=徳永憲 - 気にしないで
DYEAR=2000
DGENRE=Rock
TTITLE0=気にしないで
TTITLE1=コントロール
TTITLE2=マテリアル･イシュー(不時着)
EXTD=YEAR: 2000.07/05
EXTT0=
EXTT1=
EXTT2=
PLAYORDER=
